<?xml version="1.0" encoding="UTF-8"?>
<svg xmlns="http://www.w3.org/2000/svg" version="1.1" viewBox="0 0 773.8 284.5">
  <defs>
    <style>
      .cls-1 {
        fill: #fff;
      }
    </style>
  </defs>
  <!-- Generator: Adobe Illustrator 28.7.10, SVG Export Plug-In . SVG Version: 1.2.0 Build 236)  -->
  <g>
    <g id="Layer_5">
      <path class="cls-1" d="M335.7,97.9h22.2c10.1,0,17.5,1.4,22.1,4.3,4.6,2.9,6.9,7.5,6.9,13.8s-1,7.8-3,10.5c-2,2.7-4.7,4.4-8,4.9v.5c4.5,1,7.8,2.9,9.8,5.7,2,2.8,3,6.4,3,11,0,6.5-2.4,11.6-7.1,15.2-4.7,3.6-11.1,5.5-19.2,5.5h-26.7v-71.4h0ZM350.8,126.2h8.8c4.1,0,7.1-.6,8.9-1.9,1.8-1.3,2.8-3.4,2.8-6.3s-1-4.7-3-5.9-5.2-1.8-9.5-1.8h-8v15.9h0ZM350.8,138.2v18.6h9.9c4.2,0,7.2-.8,9.2-2.4,2-1.6,3-4,3-7.3,0-5.9-4.2-8.9-12.7-8.9h-9.4ZM447.6,169.3h-49.9v-10.5l17.9-18.1c5.3-5.4,8.8-9.2,10.4-11.3,1.6-2.1,2.8-4.1,3.5-5.8.7-1.8,1.1-3.7,1.1-5.6,0-2.9-.8-5-2.4-6.4s-3.7-2.1-6.3-2.1-5.5.6-8.1,1.9c-2.6,1.3-5.3,3.1-8.2,5.4l-8.2-9.7c3.5-3,6.4-5.1,8.7-6.3s4.8-2.2,7.6-2.9c2.7-.7,5.8-1,9.2-1s8.4.8,11.8,2.4c3.4,1.6,6.1,3.9,8,6.8,1.9,2.9,2.8,6.3,2.8,10.1s-.6,6.4-1.7,9.3c-1.1,2.9-3,5.8-5.4,8.9-2.4,3-6.7,7.3-12.8,12.9l-9.2,8.6v.7h31.1v12.7h0ZM508.9,120.2c0,7.7-2.4,13.6-7.2,17.6-4.8,4.1-11.6,6.1-20.5,6.1h-6.5v25.4h-15.1v-71.4h22.8c8.7,0,15.2,1.9,19.8,5.6,4.5,3.7,6.8,9.3,6.8,16.7h0ZM474.7,131.5h5c4.7,0,8.1-.9,10.5-2.8s3.5-4.5,3.5-8-1-6.2-2.9-7.9c-1.9-1.7-5-2.5-9.1-2.5h-6.9v21.2h0ZM533.6,141.9v27.4h-15.1v-71.4h20.8c9.7,0,16.9,1.8,21.5,5.3,4.7,3.5,7,8.9,7,16.1s-1.2,7.9-3.5,11.2-5.6,5.8-9.8,7.7c10.8,16.1,17.8,26.4,21,31.1h-16.8l-17-27.4h-8.1ZM533.6,129.6h4.9c4.8,0,8.3-.8,10.6-2.4,2.3-1.6,3.4-4.1,3.4-7.5s-1.2-5.8-3.5-7.2-5.9-2.2-10.8-2.2h-4.6v19.3h0ZM626.6,169.3h-41.1v-71.4h41.1v12.4h-26v15.7h24.2v12.4h-24.2v18.4h26v12.5h0ZM685.8,149.5c0,6.4-2.3,11.5-7,15.2s-11.1,5.6-19.4,5.6-14.4-1.4-20.2-4.3v-14.1c4.8,2.1,8.9,3.7,12.2,4.5,3.3.9,6.4,1.3,9.2,1.3s5.9-.6,7.7-1.9c1.8-1.3,2.7-3.2,2.7-5.7s-.4-2.6-1.2-3.7c-.8-1.1-1.9-2.1-3.4-3.1-1.5-1-4.6-2.6-9.3-4.8-4.4-2.1-7.6-4-9.8-5.9s-3.9-4.1-5.2-6.6-2-5.4-2-8.8c0-6.3,2.1-11.3,6.4-14.9,4.3-3.6,10.2-5.4,17.8-5.4s7.3.4,10.6,1.3c3.4.9,6.9,2.1,10.6,3.7l-4.9,11.8c-3.8-1.6-7-2.7-9.5-3.3-2.5-.6-4.9-.9-7.3-.9s-5.1.7-6.6,2c-1.5,1.3-2.3,3.1-2.3,5.2s.3,2.5.9,3.5,1.6,1.9,3,2.9c1.3.9,4.5,2.6,9.6,5,6.7,3.2,11.2,6.4,13.7,9.6,2.5,3.2,3.7,7.1,3.7,11.8h0ZM743,149.5c0,6.4-2.3,11.5-7,15.2s-11.1,5.6-19.4,5.6-14.4-1.4-20.2-4.3v-14.1c4.8,2.1,8.9,3.7,12.2,4.5,3.3.9,6.4,1.3,9.2,1.3s5.9-.6,7.7-1.9c1.8-1.3,2.7-3.2,2.7-5.7s-.4-2.6-1.2-3.7c-.8-1.1-1.9-2.1-3.4-3.1-1.5-1-4.6-2.6-9.3-4.8-4.4-2.1-7.6-4-9.8-5.9s-3.9-4.1-5.2-6.6-2-5.4-2-8.8c0-6.3,2.1-11.3,6.4-14.9,4.3-3.6,10.2-5.4,17.8-5.4s7.3.4,10.6,1.3c3.4.9,6.9,2.1,10.6,3.7l-4.9,11.8c-3.8-1.6-7-2.7-9.5-3.3-2.5-.6-4.9-.9-7.3-.9s-5.1.7-6.6,2c-1.5,1.3-2.3,3.1-2.3,5.2s.3,2.5.9,3.5,1.6,1.9,3,2.9c1.3.9,4.5,2.6,9.6,5,6.7,3.2,11.2,6.4,13.7,9.6,2.5,3.2,3.7,7.1,3.7,11.8h0ZM181.8,67.7c3.5-.9,5.5-4.5,4.6-7.9-.9-3.5-4.5-5.5-7.9-4.6l-96.1,25.4c-3.5.9-5.5,4.5-4.6,7.9.8,2.9,3.4,4.8,6.3,4.8s1.1,0,1.7-.2l96.1-25.4ZM189.9,97.3c3.5-.9,5.5-4.5,4.6-7.9-.9-3.5-4.5-5.5-7.9-4.6l-96.1,25.4c-3.5.9-5.5,4.5-4.6,7.9.8,2.9,3.4,4.8,6.3,4.8s1.1,0,1.7-.2l96.1-25.4ZM194.7,114.3l-96.1,25.4c-3.5.9-5.5,4.5-4.6,7.9.8,2.9,3.4,4.8,6.3,4.8s1.1,0,1.7-.2l96.1-25.4c3.5-.9,5.5-4.5,4.6-7.9-.9-3.5-4.5-5.5-7.9-4.6h0ZM281.2,123.5c0-.2,0-.4,0-.7,0-.3-.1-.5-.2-.8,0-.2-.1-.4-.2-.5-.1-.3-.3-.6-.5-.9,0,0-.1-.2-.2-.3-.2-.4-.5-.7-.9-1,0,0,0,0,0,0l-21.3-20.1c-2.6-2.5-6.7-2.3-9.2.3-2.5,2.6-2.3,6.7.3,9.2l15.3,14.4-3.1,2-17.1,11.2-8.7-31.6-24.6-89.8c-.9-3.4-4.5-5.5-7.9-4.6l-80.3,21.2-86.3,22.8c-1.7.4-3.1,1.5-4,3-.9,1.5-1.1,3.3-.6,5l10.5,38-2.3-8.4-29.2,27.5s0,0,0,0c-.3.3-.6.7-.9,1,0,0-.1.2-.2.3-.2.3-.3.6-.5.9,0,.2-.1.4-.2.5,0,.2-.1.5-.2.8,0,.2,0,.4,0,.7,0,.2,0,.3,0,.4v139c0,0,0,.1,0,.2,0,.2,0,.5,0,.7,0,.2,0,.4,0,.6,0,.2.1.4.2.6,0,.2.1.4.2.6,0,.2.2.3.3.5.1.2.2.4.4.6,0,0,0,.1.1.2,0,0,.1.1.2.2.2.2.4.5.7.7.1.1.3.2.4.3.2.2.5.3.8.5.1,0,.3.2.4.2.3.1.6.2,1,.3.1,0,.2,0,.3.1.4.1.9.2,1.4.2h259.6c.5,0,.9,0,1.4-.1.1,0,.2,0,.3-.1.3,0,.7-.2,1-.3.1,0,.3-.1.4-.2.3-.1.5-.3.8-.5.1-.1.3-.2.4-.3.2-.2.5-.4.6-.7,0,0,.1-.1.2-.2,0,0,0-.1.1-.2.1-.2.3-.4.4-.6.1-.2.2-.3.3-.5,0-.2.2-.4.2-.6,0-.2.1-.4.2-.6,0-.2,0-.4.1-.6,0-.2,0-.5,0-.7,0,0,0-.1,0-.2V124c0-.2,0-.3,0-.5h0ZM52,256.4h-17.8l26-19.9c2.8-2.2,3.4-6.3,1.2-9.1-2.2-2.8-6.3-3.4-9.1-1.2l-30.7,23.6v-113.8l42.9,27.9,39.7,25.8,37.3,24.2c1.1.7,2.3,1.1,3.5,1.1s2.5-.4,3.6-1.1l28.6-18.9,78.7,61.6H52ZM247.7,149.3l20.6-13.4v113.7l-86.4-67.7c-1.3-1-2.8-1.4-4.3-1.4-1.4,0-2.8.2-4,1l-28.6,18.9-33.8-21.9-39.7-25.8-43.1-28-2.9-1.8,18.2-17.1,4,14.5c.8,2.9,3.4,4.8,6.3,4.8s1.2,0,1.7-.2c3.5-.9,5.5-4.5,4.5-8l-14.3-51.9,79.9-21.1,74.1-19.6,22.9,83.6,9.8,35.6-7.8,5.1c-3,1.9-3.9,6-1.9,9,1.2,1.9,3.3,2.9,5.4,2.9s2.4-.3,3.5-1.1l4.3-2.8,11.4-7.4h0ZM362.9,253.4c0,5.3-1.4,9.5-4,12.6s-6.4,4.6-11.2,4.6-8.7-1.5-11.3-4.5c-2.7-3-4-7.2-4-12.7s1.3-9.6,4-12.6c2.7-3,6.5-4.5,11.4-4.5s8.5,1.5,11.2,4.6,4,7.2,4,12.6h0ZM336.4,253.4c0,4.5,1,7.9,2.9,10.2s4.7,3.5,8.4,3.5,6.5-1.2,8.4-3.5,2.8-5.7,2.8-10.3-.9-7.9-2.8-10.2c-1.9-2.3-4.6-3.5-8.3-3.5s-6.5,1.2-8.4,3.5-2.9,5.7-2.9,10.2h0ZM395.9,270.1h-4.4l-18.2-27.9h-.2c.2,3.3.4,6.3.4,9v18.9h-3.6v-33.3h4.4l18.1,27.8h.2c0-.4-.1-1.7-.2-4s-.1-3.8-.1-4.8v-19.1h3.6v33.3ZM405.5,270.1v-33.3h3.9v29.8h14.7v3.5h-18.5ZM431.1,270.1v-33.3h3.9v33.3h-3.9ZM469.6,270.1h-4.4l-18.2-27.9h-.2c.2,3.3.4,6.3.4,9v18.9h-3.6v-33.3h4.4l18.1,27.8h.2c0-.4-.1-1.7-.2-4-.1-2.2-.1-3.8-.1-4.8v-19.1h3.6v33.3h0ZM496.8,270.1h-18.5v-33.3h18.5v3.4h-14.7v10.7h13.8v3.4h-13.8v12.2h14.7v3.5ZM538.3,246.5c0,3.4-1.2,6-3.5,7.8s-5.6,2.7-9.9,2.7h-3.9v13.1h-3.9v-33.3h8.6c8.3,0,12.5,3.2,12.5,9.7h0ZM521.1,253.7h3.5c3.4,0,5.9-.6,7.4-1.7s2.3-2.9,2.3-5.3-.7-3.8-2.2-4.9-3.7-1.6-6.7-1.6h-4.3v13.5h0ZM548.7,256.2v13.8h-3.9v-33.3h9.1c4.1,0,7.1.8,9,2.3s2.9,3.9,2.9,7.1-2.2,7.4-6.7,8.9l9,14.9h-4.6l-8.1-13.8h-6.9ZM548.7,252.9h5.3c2.7,0,4.7-.5,6-1.6,1.3-1.1,1.9-2.7,1.9-4.9s-.7-3.8-2-4.8-3.4-1.5-6.2-1.5h-5v12.7h0ZM605.4,261.2c0,2.9-1.1,5.2-3.2,6.9-2.1,1.6-5,2.5-8.7,2.5s-7-.5-9.1-1.5v-3.7c1.4.6,2.8,1,4.5,1.4,1.6.3,3.2.5,4.8.5,2.6,0,4.5-.5,5.8-1.5s2-2.3,2-4.1-.2-2.1-.7-2.8c-.5-.7-1.2-1.4-2.3-2s-2.7-1.3-5-2.1c-3.1-1.1-5.3-2.4-6.6-3.9-1.3-1.5-2-3.5-2-5.9s1-4.6,2.9-6.1,4.5-2.3,7.7-2.3,6.3.6,9.1,1.8l-1.2,3.4c-2.8-1.1-5.4-1.7-8-1.7s-3.7.4-4.8,1.3-1.7,2.1-1.7,3.7.2,2.1.6,2.8c.4.7,1.1,1.4,2.2,2,1,.6,2.5,1.3,4.6,2,3.5,1.2,5.9,2.6,7.2,4s2,3.3,2,5.5h0ZM631.2,270.1h-18.5v-33.3h18.5v3.4h-14.7v10.7h13.8v3.4h-13.8v12.2h14.7v3.5ZM643.9,256.2v13.8h-3.9v-33.3h9.1c4.1,0,7.1.8,9,2.3s2.9,3.9,2.9,7.1-2.2,7.4-6.7,8.9l9,14.9h-4.6l-8.1-13.8h-6.9ZM643.9,252.9h5.3c2.7,0,4.7-.5,6-1.6,1.3-1.1,1.9-2.7,1.9-4.9s-.7-3.8-2-4.8-3.4-1.5-6.2-1.5h-5v12.7h0ZM688.3,236.8h4.2l-12,33.3h-3.8l-11.9-33.3h4.1l7.7,21.5c.9,2.5,1.6,4.9,2.1,7.2.5-2.5,1.3-4.9,2.1-7.4l7.6-21.4h0ZM698.1,230.7c0-.9.2-1.5.6-1.9.4-.4,1-.6,1.6-.6s1.1.2,1.6.6c.4.4.7,1,.7,1.9s-.2,1.5-.7,1.9-1,.6-1.6.6-1.2-.2-1.6-.6-.6-1.1-.6-1.9ZM698.4,270.1v-33.3h3.9v33.3h-3.9ZM730.7,261.2c0,2.9-1.1,5.2-3.2,6.9-2.1,1.6-5,2.5-8.7,2.5s-7-.5-9.1-1.5v-3.7c1.4.6,2.8,1,4.5,1.4,1.6.3,3.2.5,4.8.5,2.6,0,4.5-.5,5.8-1.5s2-2.3,2-4.1-.2-2.1-.7-2.8c-.5-.7-1.2-1.4-2.3-2s-2.7-1.3-5-2.1c-3.1-1.1-5.3-2.4-6.6-3.9-1.3-1.5-2-3.5-2-5.9s1-4.6,2.9-6.1,4.5-2.3,7.7-2.3,6.3.6,9.1,1.8l-1.2,3.4c-2.8-1.1-5.4-1.7-8-1.7s-3.7.4-4.8,1.3-1.7,2.1-1.7,3.7.2,2.1.6,2.8c.4.7,1.1,1.4,2.2,2,1,.6,2.5,1.3,4.6,2,3.5,1.2,5.9,2.6,7.2,4s2,3.3,2,5.5h0ZM738.6,230.7c0-.9.2-1.5.6-1.9.4-.4,1-.6,1.6-.6s1.1.2,1.6.6c.4.4.7,1,.7,1.9s-.2,1.5-.7,1.9-1,.6-1.6.6-1.2-.2-1.6-.6-.6-1.1-.6-1.9ZM738.9,270.1v-33.3h3.9v33.3h-3.9ZM739.6,205.8h-398c-3.3,0-5.9-2.6-5.9-5.9s2.6-5.9,5.9-5.9h398c3.3,0,5.9,2.6,5.9,5.9s-2.7,5.9-5.9,5.9Z"/>
    </g>
  </g>
</svg>