<?xml version="1.0" encoding="UTF-8"?>
<svg id="Layer_5" data-name="Layer 5" xmlns="http://www.w3.org/2000/svg" viewBox="0 0 773.84 284.46">
  <defs>
    <style>
      .cls-1 {
        fill: #00758d;
      }
    </style>
  </defs>
  <path class="cls-1" d="m335.68,97.87h22.23c10.13,0,17.48,1.44,22.06,4.32,4.57,2.88,6.86,7.47,6.86,13.75,0,4.27-1,7.77-3,10.5-2,2.74-4.66,4.38-7.99,4.93v.49c4.53,1.01,7.79,2.9,9.8,5.67,2,2.77,3,6.45,3,11.04,0,6.51-2.36,11.6-7.06,15.24-4.71,3.65-11.1,5.47-19.18,5.47h-26.72v-71.43Zm15.15,28.29h8.79c4.1,0,7.08-.64,8.92-1.91,1.84-1.27,2.76-3.37,2.76-6.3,0-2.74-1-4.7-3-5.89-2-1.19-5.17-1.78-9.5-1.78h-7.96v15.88Zm0,12.02v18.61h9.87c4.17,0,7.25-.8,9.23-2.39,1.99-1.6,2.98-4.04,2.98-7.33,0-5.93-4.24-8.89-12.7-8.89h-9.38Z"/>
  <path class="cls-1" d="m447.62,169.3h-49.93v-10.5l17.93-18.13c5.31-5.44,8.78-9.21,10.41-11.31,1.63-2.1,2.8-4.05,3.52-5.84.71-1.79,1.07-3.65,1.07-5.57,0-2.87-.79-5-2.37-6.4-1.58-1.4-3.69-2.1-6.33-2.1-2.77,0-5.46.64-8.06,1.91-2.61,1.27-5.33,3.08-8.16,5.42l-8.21-9.72c3.52-3,6.43-5.11,8.74-6.35,2.31-1.24,4.84-2.19,7.57-2.86,2.74-.67,5.8-1,9.18-1,4.46,0,8.4.82,11.82,2.44,3.42,1.63,6.07,3.91,7.96,6.84,1.89,2.93,2.83,6.29,2.83,10.06,0,3.29-.58,6.38-1.74,9.26-1.15,2.88-2.95,5.84-5.37,8.87-2.42,3.03-6.7,7.34-12.82,12.95l-9.18,8.65v.68h31.12v12.7Z"/>
  <path class="cls-1" d="m508.93,120.15c0,7.69-2.4,13.57-7.2,17.64-4.81,4.07-11.64,6.11-20.5,6.11h-6.5v25.4h-15.14v-71.43h22.82c8.66,0,15.25,1.87,19.76,5.59,4.51,3.73,6.77,9.29,6.77,16.68Zm-34.2,11.33h4.98c4.66,0,8.14-.92,10.45-2.76,2.31-1.84,3.47-4.52,3.47-8.04s-.97-6.17-2.91-7.87c-1.94-1.69-4.98-2.54-9.11-2.54h-6.89v21.2Z"/>
  <path class="cls-1" d="m533.56,141.89v27.41h-15.14v-71.43h20.81c9.7,0,16.89,1.77,21.54,5.3,4.66,3.53,6.99,8.9,6.99,16.1,0,4.2-1.16,7.94-3.47,11.21-2.31,3.27-5.59,5.84-9.82,7.69,10.75,16.06,17.75,26.43,21.01,31.12h-16.81l-17.05-27.41h-8.06Zm0-12.31h4.89c4.79,0,8.32-.8,10.6-2.39,2.28-1.6,3.42-4.1,3.42-7.52s-1.16-5.8-3.49-7.23c-2.33-1.43-5.93-2.15-10.82-2.15h-4.59v19.3Z"/>
  <path class="cls-1" d="m626.64,169.3h-41.14v-71.43h41.14v12.41h-25.99v15.68h24.18v12.41h-24.18v18.42h25.99v12.51Z"/>
  <path class="cls-1" d="m685.77,149.46c0,6.45-2.32,11.53-6.96,15.24-4.64,3.71-11.1,5.57-19.37,5.57-7.62,0-14.36-1.43-20.23-4.3v-14.07c4.82,2.15,8.9,3.66,12.24,4.54,3.34.88,6.39,1.32,9.16,1.32,3.32,0,5.87-.64,7.65-1.91,1.77-1.27,2.66-3.16,2.66-5.67,0-1.4-.39-2.65-1.17-3.74-.78-1.09-1.93-2.14-3.44-3.15-1.52-1.01-4.6-2.62-9.26-4.84-4.37-2.05-7.64-4.02-9.82-5.91-2.18-1.89-3.93-4.09-5.23-6.6-1.3-2.51-1.95-5.44-1.95-8.79,0-6.32,2.14-11.29,6.43-14.9,4.28-3.62,10.2-5.42,17.76-5.42,3.71,0,7.26.44,10.62,1.32,3.37.88,6.9,2.12,10.58,3.71l-4.89,11.77c-3.81-1.56-6.96-2.65-9.45-3.27-2.49-.62-4.94-.93-7.35-.93-2.87,0-5.07.67-6.6,2-1.53,1.34-2.3,3.08-2.3,5.23,0,1.34.31,2.5.93,3.49.62.99,1.6,1.95,2.95,2.88,1.35.93,4.55,2.6,9.6,5.01,6.68,3.19,11.25,6.39,13.73,9.6,2.47,3.21,3.71,7.14,3.71,11.8Z"/>
  <path class="cls-1" d="m742.95,149.46c0,6.45-2.32,11.53-6.96,15.24-4.64,3.71-11.1,5.57-19.37,5.57-7.62,0-14.36-1.43-20.23-4.3v-14.07c4.82,2.15,8.9,3.66,12.24,4.54,3.34.88,6.39,1.32,9.16,1.32,3.32,0,5.87-.64,7.65-1.91,1.77-1.27,2.66-3.16,2.66-5.67,0-1.4-.39-2.65-1.17-3.74-.78-1.09-1.93-2.14-3.44-3.15-1.52-1.01-4.6-2.62-9.26-4.84-4.37-2.05-7.64-4.02-9.82-5.91-2.18-1.89-3.93-4.09-5.23-6.6-1.3-2.51-1.95-5.44-1.95-8.79,0-6.32,2.14-11.29,6.43-14.9,4.28-3.62,10.2-5.42,17.76-5.42,3.71,0,7.26.44,10.62,1.32,3.37.88,6.9,2.12,10.58,3.71l-4.89,11.77c-3.81-1.56-6.96-2.65-9.45-3.27-2.49-.62-4.94-.93-7.35-.93-2.87,0-5.07.67-6.6,2-1.53,1.34-2.3,3.08-2.3,5.23,0,1.34.31,2.5.93,3.49.62.99,1.6,1.95,2.95,2.88,1.35.93,4.55,2.6,9.6,5.01,6.68,3.19,11.25,6.39,13.73,9.6,2.47,3.21,3.71,7.14,3.71,11.8Z"/>
  <g>
    <path class="cls-1" d="m181.84,67.73c3.47-.92,5.53-4.47,4.62-7.93-.92-3.47-4.48-5.54-7.93-4.62l-96.1,25.38c-3.47.92-5.53,4.47-4.62,7.93.77,2.91,3.4,4.84,6.27,4.84.55,0,1.11-.07,1.66-.22l96.1-25.38Z"/>
    <path class="cls-1" d="m189.93,97.29c3.47-.92,5.53-4.47,4.62-7.93-.92-3.47-4.48-5.53-7.93-4.62l-96.1,25.38c-3.47.92-5.53,4.47-4.62,7.93.77,2.91,3.4,4.84,6.27,4.84.55,0,1.11-.07,1.66-.22l96.1-25.38Z"/>
    <path class="cls-1" d="m194.72,114.29l-96.1,25.38c-3.47.92-5.53,4.47-4.62,7.93.77,2.91,3.4,4.84,6.27,4.84.55,0,1.11-.07,1.66-.22l96.1-25.38c3.47-.92,5.53-4.47,4.62-7.93-.92-3.47-4.47-5.53-7.93-4.62Z"/>
    <path class="cls-1" d="m281.22,123.5c-.02-.22-.03-.44-.07-.66-.05-.26-.12-.51-.2-.76-.06-.18-.1-.37-.17-.54-.13-.32-.29-.62-.47-.91-.06-.1-.1-.2-.16-.3-.25-.37-.54-.71-.86-1.02-.03-.03-.04-.06-.07-.08l-21.34-20.06c-2.61-2.46-6.72-2.33-9.17.28-2.46,2.61-2.33,6.72.28,9.18l15.31,14.39-3.07,1.99-17.15,11.15-8.66-31.58-24.62-89.84c-.94-3.44-4.49-5.47-7.92-4.56l-80.31,21.21-86.26,22.78c-1.68.44-3.1,1.54-3.97,3.04-.86,1.5-1.09,3.29-.63,4.96l10.46,37.97-2.3-8.36-29.17,27.45s-.04.06-.07.08c-.32.31-.61.65-.86,1.02-.06.1-.11.2-.16.3-.17.29-.34.59-.47.9-.07.18-.11.36-.17.54-.08.25-.15.5-.2.76-.04.22-.05.44-.07.66-.01.15-.05.3-.05.45v138.96c0,.07.02.13.02.19,0,.23.04.46.07.69.03.2.05.39.09.59.05.2.12.4.19.6.07.21.14.41.23.61.08.17.18.34.27.5.12.21.24.42.38.61.04.05.06.11.1.16.06.08.15.14.21.22.21.24.42.47.66.68.13.12.26.23.4.33.24.18.49.33.76.48.14.08.28.16.43.23.31.14.63.24.96.34.12.03.22.08.34.11.45.1.91.16,1.39.16h259.61c.47,0,.93-.06,1.38-.15.11-.02.22-.07.33-.1.33-.09.66-.19.97-.33.14-.07.28-.15.42-.23.26-.14.52-.3.76-.47.14-.1.27-.22.4-.33.23-.2.45-.42.65-.66.06-.08.14-.13.21-.21.04-.06.07-.12.11-.18.14-.19.26-.4.39-.61.1-.17.19-.33.27-.5.09-.2.16-.41.23-.62.07-.2.14-.39.19-.6.05-.19.07-.39.1-.59.03-.23.06-.46.07-.69,0-.07.02-.14.02-.22V123.96c0-.16-.04-.3-.05-.46ZM52.04,256.42h-17.77l25.97-19.95c2.84-2.18,3.37-6.26,1.19-9.1-2.18-2.84-6.26-3.38-9.1-1.19l-30.67,23.56v-113.83l42.88,27.85,39.66,25.75,37.32,24.23c1.08.7,2.3,1.05,3.53,1.05s2.49-.36,3.58-1.08l28.64-18.93,78.7,61.64H52.04Zm195.66-107.12l20.58-13.38v113.67l-86.4-67.67c-1.26-.99-2.78-1.41-4.27-1.35-1.36-.09-2.75.23-3.98,1.04l-28.63,18.93-33.75-21.92-39.66-25.75-43.12-28-2.85-1.85,18.16-17.09,3.99,14.48c.79,2.88,3.41,4.77,6.26,4.77.57,0,1.15-.08,1.73-.23,3.46-.95,5.49-4.53,4.53-7.98l-14.31-51.92,79.92-21.1,74.1-19.57,22.92,83.64,9.75,35.58-7.79,5.06c-3.01,1.95-3.86,5.97-1.9,8.98,1.24,1.91,3.32,2.95,5.45,2.95,1.21,0,2.44-.34,3.53-1.05l4.32-2.81,11.43-7.43Z"/>
  </g>
  <g>
    <path class="cls-1" d="m362.91,253.41c0,5.33-1.35,9.51-4.04,12.56-2.69,3.05-6.44,4.57-11.23,4.57s-8.68-1.5-11.34-4.49-3.99-7.23-3.99-12.69,1.33-9.61,4.01-12.6c2.67-2.98,6.46-4.47,11.38-4.47s8.51,1.52,11.2,4.55c2.69,3.04,4.03,7.22,4.03,12.56Zm-26.51,0c0,4.51.96,7.92,2.88,10.25,1.92,2.33,4.71,3.49,8.36,3.49s6.47-1.16,8.35-3.48,2.82-5.74,2.82-10.26-.94-7.87-2.81-10.18c-1.87-2.31-4.65-3.47-8.32-3.47s-6.49,1.16-8.41,3.49c-1.92,2.33-2.88,5.72-2.88,10.16Z"/>
    <path class="cls-1" d="m395.85,270.09h-4.42l-18.18-27.92h-.18c.24,3.28.36,6.28.36,9.01v18.91h-3.57v-33.27h4.37l18.14,27.81h.18c-.03-.41-.1-1.73-.21-3.95-.11-2.22-.14-3.81-.11-4.77v-19.09h3.62v33.27Z"/>
    <path class="cls-1" d="m405.47,270.09v-33.27h3.87v29.77h14.68v3.5h-18.55Z"/>
    <path class="cls-1" d="m431.06,270.09v-33.27h3.87v33.27h-3.87Z"/>
    <path class="cls-1" d="m469.57,270.09h-4.41l-18.18-27.92h-.18c.24,3.28.36,6.28.36,9.01v18.91h-3.57v-33.27h4.37l18.14,27.81h.18c-.03-.41-.1-1.73-.2-3.95-.11-2.22-.14-3.81-.11-4.77v-19.09h3.62v33.27Z"/>
    <path class="cls-1" d="m496.8,270.09h-18.55v-33.27h18.55v3.44h-14.68v10.72h13.79v3.41h-13.79v12.24h14.68v3.46Z"/>
    <path class="cls-1" d="m538.31,246.51c0,3.37-1.15,5.96-3.45,7.77-2.3,1.81-5.59,2.72-9.87,2.72h-3.91v13.08h-3.87v-33.27h8.62c8.31,0,12.47,3.23,12.47,9.69Zm-17.23,7.17h3.48c3.43,0,5.91-.55,7.44-1.66,1.53-1.11,2.3-2.88,2.3-5.33,0-2.2-.72-3.84-2.16-4.92s-3.69-1.62-6.74-1.62h-4.32v13.52Z"/>
    <path class="cls-1" d="m548.68,256.25v13.84h-3.87v-33.27h9.13c4.08,0,7.1.78,9.05,2.34,1.95,1.56,2.92,3.91,2.92,7.05,0,4.4-2.23,7.37-6.69,8.92l9.03,14.95h-4.57l-8.06-13.84h-6.94Zm0-3.32h5.3c2.73,0,4.73-.54,6.01-1.63,1.27-1.08,1.91-2.71,1.91-4.88s-.65-3.79-1.95-4.76c-1.3-.97-3.38-1.46-6.25-1.46h-5.03v12.72Z"/>
    <path class="cls-1" d="m605.43,261.23c0,2.93-1.06,5.21-3.19,6.85-2.12,1.64-5.01,2.46-8.65,2.46-3.94,0-6.98-.51-9.1-1.52v-3.73c1.37.58,2.85,1.03,4.46,1.37,1.61.33,3.2.5,4.78.5,2.58,0,4.52-.49,5.83-1.47s1.96-2.34,1.96-4.08c0-1.15-.23-2.1-.69-2.83s-1.24-1.42-2.32-2.04-2.73-1.33-4.95-2.12c-3.09-1.11-5.31-2.42-6.63-3.94-1.33-1.52-1.99-3.5-1.99-5.94,0-2.56.96-4.6,2.89-6.12,1.93-1.52,4.48-2.28,7.65-2.28s6.35.61,9.13,1.82l-1.21,3.37c-2.75-1.15-5.42-1.73-8.01-1.73-2.05,0-3.65.44-4.8,1.32s-1.73,2.1-1.73,3.66c0,1.15.21,2.1.64,2.83.42.74,1.14,1.41,2.15,2.03,1.01.61,2.55,1.29,4.63,2.04,3.49,1.24,5.89,2.58,7.2,4,1.31,1.43,1.97,3.28,1.97,5.55Z"/>
    <path class="cls-1" d="m631.25,270.09h-18.55v-33.27h18.55v3.44h-14.68v10.72h13.79v3.41h-13.79v12.24h14.68v3.46Z"/>
    <path class="cls-1" d="m643.89,256.25v13.84h-3.87v-33.27h9.13c4.08,0,7.1.78,9.05,2.34,1.95,1.56,2.92,3.91,2.92,7.05,0,4.4-2.23,7.37-6.69,8.92l9.03,14.95h-4.57l-8.06-13.84h-6.94Zm0-3.32h5.3c2.73,0,4.73-.54,6.01-1.63,1.27-1.08,1.91-2.71,1.91-4.88s-.65-3.79-1.95-4.76c-1.3-.97-3.38-1.46-6.25-1.46h-5.03v12.72Z"/>
    <path class="cls-1" d="m688.3,236.82h4.17l-11.99,33.27h-3.82l-11.92-33.27h4.1l7.65,21.53c.88,2.47,1.58,4.88,2.09,7.21.55-2.46,1.26-4.91,2.14-7.35l7.6-21.39Z"/>
    <path class="cls-1" d="m698.12,230.69c0-.86.21-1.5.64-1.9.42-.4.96-.6,1.59-.6s1.13.21,1.57.61c.44.41.66,1.04.66,1.89s-.22,1.48-.66,1.9c-.44.42-.96.63-1.57.63s-1.17-.21-1.59-.63c-.42-.42-.64-1.05-.64-1.9Zm.32,39.39v-33.27h3.87v33.27h-3.87Z"/>
    <path class="cls-1" d="m730.67,261.23c0,2.93-1.06,5.21-3.19,6.85-2.12,1.64-5.01,2.46-8.65,2.46-3.94,0-6.98-.51-9.1-1.52v-3.73c1.37.58,2.85,1.03,4.46,1.37,1.61.33,3.2.5,4.78.5,2.58,0,4.52-.49,5.83-1.47s1.96-2.34,1.96-4.08c0-1.15-.23-2.1-.69-2.83s-1.24-1.42-2.32-2.04-2.73-1.33-4.95-2.12c-3.09-1.11-5.31-2.42-6.63-3.94-1.33-1.52-1.99-3.5-1.99-5.94,0-2.56.96-4.6,2.89-6.12,1.93-1.52,4.48-2.28,7.65-2.28s6.35.61,9.13,1.82l-1.21,3.37c-2.75-1.15-5.42-1.73-8.01-1.73-2.05,0-3.65.44-4.8,1.32s-1.73,2.1-1.73,3.66c0,1.15.21,2.1.64,2.83.42.74,1.14,1.41,2.15,2.03,1.01.61,2.55,1.29,4.63,2.04,3.49,1.24,5.89,2.58,7.2,4,1.31,1.43,1.97,3.28,1.97,5.55Z"/>
    <path class="cls-1" d="m738.56,230.69c0-.86.21-1.5.64-1.9.42-.4.96-.6,1.59-.6s1.13.21,1.57.61c.44.41.66,1.04.66,1.89s-.22,1.48-.66,1.9c-.44.42-.96.63-1.57.63s-1.17-.21-1.59-.63c-.42-.42-.64-1.05-.64-1.9Zm.32,39.39v-33.27h3.87v33.27h-3.87Z"/>
  </g>
  <path class="cls-1" d="m739.61,205.75h-398.02c-3.27,0-5.91-2.65-5.91-5.91s2.65-5.91,5.91-5.91h398.02c3.27,0,5.91,2.65,5.91,5.91s-2.65,5.91-5.91,5.91Z"/>
</svg>